<svg id="Capa_1" enable-background="new 0 0 512 512" height="512" viewBox="0 0 512 512" width="512" xmlns="http://www.w3.org/2000/svg"><g><g><path d="m17.704 10.323c0-5.701 4.621-10.323 10.322-10.323h265.749l30.351 64.462 65.584 31.473v387.162 9.581c0 5.701-4.622 10.323-10.323 10.323h-351.361c-5.701 0-10.323-4.622-10.323-10.323v-9.581-472.774z" fill="#f6e080"/><path d="m379.388 493.419h-351.362c-5.701 0-10.323-4.622-10.323-10.323v18.581c0 5.701 4.622 10.323 10.323 10.323h351.362c5.701 0 10.323-4.622 10.323-10.323v-18.581c0 5.702-4.622 10.323-10.323 10.323z" fill="#eccd61"/><path d="m314.421 86.935h47.735l8.974-9.581-77.354-77.354v56.709 9.581c0 11.402 9.243 20.645 20.645 20.645z" fill="#ecb85e"/><path d="m314.421 77.354c-11.402 0-20.645-9.243-20.645-20.645v18.581c0 11.402 9.243 20.645 20.645 20.645h75.29l-18.581-18.581z" fill="#eaa949"/><g fill="#ecb85e"><path d="m102.705 136.888h-30.905c-4.276 0-7.742-3.466-7.742-7.742s3.466-7.742 7.742-7.742h30.904c4.276 0 7.742 3.466 7.742 7.742.001 4.276-3.466 7.742-7.741 7.742z"/><path d="m286.548 136.888h-149.003c-4.276 0-7.742-3.466-7.742-7.742s3.466-7.742 7.742-7.742h149.003c4.276 0 7.742 3.466 7.742 7.742s-3.466 7.742-7.742 7.742z"/><path d="m102.705 204.96h-30.905c-4.276 0-7.742-3.466-7.742-7.742s3.466-7.742 7.742-7.742h30.904c4.276 0 7.742 3.466 7.742 7.742.001 4.276-3.466 7.742-7.741 7.742z"/><path d="m277.258 204.96h-139.713c-4.276 0-7.742-3.466-7.742-7.742s3.466-7.742 7.742-7.742h139.713c4.276 0 7.742 3.466 7.742 7.742s-3.466 7.742-7.742 7.742z"/><path d="m102.705 273.032h-30.905c-4.276 0-7.742-3.466-7.742-7.742s3.466-7.742 7.742-7.742h30.904c4.276 0 7.742 3.466 7.742 7.742.001 4.276-3.466 7.742-7.741 7.742z"/><path d="m277.258 273.032h-139.713c-4.276 0-7.742-3.466-7.742-7.742s3.466-7.742 7.742-7.742h139.713c4.276 0 7.742 3.466 7.742 7.742s-3.466 7.742-7.742 7.742z"/><path d="m102.705 341.104h-30.905c-4.276 0-7.742-3.466-7.742-7.742s3.466-7.742 7.742-7.742h30.904c4.276 0 7.742 3.466 7.742 7.742s-3.466 7.742-7.741 7.742z"/><path d="m277.258 341.104h-139.713c-4.276 0-7.742-3.466-7.742-7.742s3.466-7.742 7.742-7.742h139.713c4.276 0 7.742 3.466 7.742 7.742s-3.466 7.742-7.742 7.742z"/><path d="m102.705 409.176h-30.905c-4.276 0-7.742-3.466-7.742-7.742s3.466-7.742 7.742-7.742h30.904c4.276 0 7.742 3.466 7.742 7.742s-3.466 7.742-7.741 7.742z"/><path d="m277.258 409.176h-139.713c-4.276 0-7.742-3.466-7.742-7.742s3.466-7.742 7.742-7.742h139.713c4.276 0 7.742 3.466 7.742 7.742s-3.466 7.742-7.742 7.742z"/></g><g><path d="m472.293 166.262h-182.322c-12.152 0-22.003 9.851-22.003 22.003v103.696l113.164 9 113.164-9v-103.696c0-12.152-9.851-22.003-22.003-22.003z" fill="#808b95"/><path d="m446.079 257.315h-128.544c-5.701 0-10.323-4.621-10.323-10.322v-9.581-25.132c0-5.701 4.621-10.323 10.323-10.323h128.545c5.701 0 10.323 4.622 10.323 10.323v25.132 9.581c-.001 5.7-4.623 10.322-10.324 10.322z" fill="#b3e59f"/><path d="m446.079 247.734h-128.544c-5.701 0-10.323-4.622-10.323-10.323v18.581c0 5.701 4.621 10.322 10.323 10.322h128.545c5.701 0 10.323-4.621 10.323-10.322v-18.581c-.001 5.702-4.623 10.323-10.324 10.323z" fill="#95d6a4"/><path d="m267.968 291.961v179.455 9.581c0 12.152 9.851 22.003 22.003 22.003h182.322c12.152 0 22.003-9.851 22.003-22.003v-9.581-179.455z" fill="#e7ecf1"/><path d="m472.293 493.419h-182.322c-12.152 0-22.003-9.851-22.003-22.003v18.581c0 12.152 9.851 22.003 22.003 22.003h182.322c12.152 0 22.003-9.851 22.003-22.003v-18.581c0 12.152-9.851 22.003-22.003 22.003z" fill="#c6d0da"/><path d="m433.578 462.662h11.818c11.005 0 11.005-12.741 11.005-18.819v-56.361c0-6.078-4.927-11.005-11.005-11.005h-11.818c-6.078 0-11.005 4.927-11.005 11.005v56.361c0 6.078 0 18.819 11.005 18.819z" fill="#dc4955"/><path d="m316.756 335.154h14.742c9.544 0 8.462-9.827 9.35-14.178-.888-4.351-4.737-7.624-9.35-7.624h-14.742c-4.613 0-8.462 3.273-9.35 7.624.888 4.352-.99 14.178 9.35 14.178z" fill="#808b95"/><path d="m331.497 328.601h-14.742c-4.613 0-8.462-3.273-9.35-7.624-.127.62-.193 1.262-.193 1.92v14.742c0 5.271 4.273 9.544 9.544 9.544h14.742c5.271 0 9.544-4.273 9.544-9.544v-14.742c0-.658-.067-1.299-.193-1.92-.89 4.35-4.738 7.624-9.352 7.624z" fill="#5e6b75"/><path d="m374.436 335.154h14.742c9.544 0 8.462-9.827 9.35-14.178-.888-4.351-4.737-7.624-9.35-7.624h-14.742c-4.613 0-8.462 3.273-9.35 7.624.888 4.352-.99 14.178 9.35 14.178z" fill="#808b95"/><path d="m389.178 328.601h-14.742c-4.613 0-8.462-3.273-9.35-7.624-.127.62-.193 1.262-.193 1.92v14.742c0 5.271 4.273 9.544 9.544 9.544h14.742c5.271 0 9.544-4.273 9.544-9.544v-14.742c0-.658-.067-1.299-.193-1.92-.89 4.35-4.739 7.624-9.352 7.624z" fill="#5e6b75"/><path d="m432.117 335.154h14.742c9.544 0 8.462-9.827 9.35-14.178-.888-4.351-4.737-7.624-9.35-7.624h-14.742c-4.613 0-8.462 3.273-9.35 7.624.888 4.352-.99 14.178 9.35 14.178z" fill="#808b95"/><path d="m446.858 328.601h-14.741c-4.613 0-8.462-3.273-9.35-7.624-.127.62-.193 1.262-.193 1.92v14.742c0 5.271 4.273 9.544 9.544 9.544h14.741c5.271 0 9.544-4.273 9.544-9.544v-14.742c0-.658-.067-1.299-.193-1.92-.89 4.35-4.738 7.624-9.352 7.624z" fill="#5e6b75"/><path d="m316.756 398.278h14.742c9.544 0 8.462-9.827 9.35-14.178-.888-4.351-4.737-7.624-9.35-7.624h-14.742c-4.613 0-8.462 3.273-9.35 7.624.888 4.351-.99 14.178 9.35 14.178z" fill="#808b95"/><path d="m331.497 391.724h-14.742c-4.613 0-8.462-3.273-9.35-7.624-.127.62-.193 1.262-.193 1.92v14.742c0 5.271 4.273 9.544 9.544 9.544h14.742c5.271 0 9.544-4.273 9.544-9.544v-14.742c0-.658-.067-1.299-.193-1.92-.89 4.351-4.738 7.624-9.352 7.624z" fill="#5e6b75"/><path d="m374.436 398.278h14.742c9.544 0 8.462-9.827 9.35-14.178-.888-4.351-4.737-7.624-9.35-7.624h-14.742c-4.613 0-8.462 3.273-9.35 7.624.888 4.351-.99 14.178 9.35 14.178z" fill="#808b95"/><path d="m389.178 391.724h-14.742c-4.613 0-8.462-3.273-9.35-7.624-.127.62-.193 1.262-.193 1.92v14.742c0 5.271 4.273 9.544 9.544 9.544h14.742c5.271 0 9.544-4.273 9.544-9.544v-14.742c0-.658-.067-1.299-.193-1.92-.89 4.351-4.739 7.624-9.352 7.624z" fill="#5e6b75"/><path d="m316.756 461.401h14.742c9.544 0 8.462-9.827 9.35-14.178-.888-4.351-4.737-7.624-9.35-7.624h-14.742c-4.613 0-8.462 3.273-9.35 7.624.888 4.351-.99 14.178 9.35 14.178z" fill="#808b95"/><path d="m331.497 454.848h-14.742c-4.613 0-8.462-3.273-9.35-7.624-.127.62-.193 1.262-.193 1.919v14.742c0 5.271 4.273 9.544 9.544 9.544h14.742c5.271 0 9.544-4.273 9.544-9.544v-14.742c0-.658-.067-1.299-.193-1.919-.89 4.35-4.738 7.624-9.352 7.624z" fill="#5e6b75"/><path d="m374.436 461.401h14.742c9.544 0 8.462-9.827 9.35-14.178-.888-4.351-4.737-7.624-9.35-7.624h-14.742c-4.613 0-8.462 3.273-9.35 7.624.888 4.351-.99 14.178 9.35 14.178z" fill="#808b95"/><path d="m389.178 454.848h-14.742c-4.613 0-8.462-3.273-9.35-7.624-.127.62-.193 1.262-.193 1.919v14.742c0 5.271 4.273 9.544 9.544 9.544h14.742c5.271 0 9.544-4.273 9.544-9.544v-14.742c0-.658-.067-1.299-.193-1.919-.89 4.35-4.739 7.624-9.352 7.624z" fill="#5e6b75"/><path d="m445.396 454.848h-11.818c-6.078 0-11.005-4.927-11.005-11.005v18.581c0 6.078 4.927 11.005 11.005 11.005h11.818c6.078 0 11.005-4.927 11.005-11.005v-18.581c.001 6.078-4.926 11.005-11.005 11.005z" fill="#d82f3c"/></g></g></g></svg>